<svg id="Capa_1" enable-background="new 0 0 511.986 511.986" height="512"  width="512" xmlns="http://www.w3.org/2000/svg"> <symbol id="book" viewBox="0 0 511.986 511.986">

<g><g><path d="m421.643 60.04v393.97c0 11.89-9.65 21.54-21.54 21.54h-314.58c-11.9 0-21.54-9.65-21.54-21.54v-393.97c0-11.9 9.64-21.54 21.54-21.54h314.58c11.89 0 21.54 9.64 21.54 21.54z" fill="#dcf5f8"/><path d="m109.163 444.55h70.96v31h-70.96z" fill="#b3edf2"/><path d="m400.101 38.5h-34.88c11.896 0 21.539 9.644 21.539 21.54v393.969c0 11.896-9.644 21.54-21.539 21.54h34.88c11.896 0 21.54-9.644 21.54-21.54v-393.969c-.001-11.896-9.644-21.54-21.54-21.54z" fill="#b3edf2"/><path d="m400.101 444.548h-314.582c-11.896 0-21.54-9.644-21.54-21.54v-393.968c0-11.896 9.644-21.54 21.54-21.54h314.582c11.896 0 21.54 9.644 21.54 21.54v393.969c-.001 11.895-9.644 21.539-21.54 21.539z" fill="#cb97e7"/><path d="m418.187 271.291h-61.575c-12.528 0-22.684-10.156-22.684-22.684v-45.166c0-12.528 10.156-22.684 22.684-22.684h61.575c4.406 0 7.977 3.571 7.977 7.977v74.58c0 4.405-3.571 7.977-7.977 7.977z" fill="#bd80e1"/><path d="m400.101 7.5h-34.88c11.896 0 21.539 9.644 21.539 21.54v393.969c0 11.896-9.644 21.54-21.539 21.54h34.88c11.896 0 21.54-9.644 21.54-21.54v-393.969c-.001-11.896-9.644-21.54-21.54-21.54z" fill="#bd80e1"/><path d="m131.004 444.548h-45.485c-11.896 0-21.54-9.644-21.54-21.54v-393.968c0-11.896 9.644-21.54 21.54-21.54h45.486v437.048z" fill="#8379c1"/><path d="m109.161 7.5h21.843v437.048h-21.843z" fill="#6e61b6"/><path d="m440.03 271.291h-61.575c-12.528 0-22.684-10.156-22.684-22.684v-45.166c0-12.528 10.156-22.684 22.684-22.684h61.575c4.406 0 7.977 3.571 7.977 7.977v74.58c0 4.405-3.571 7.977-7.977 7.977z" fill="#8379c1"/><path d="m440.03 180.757h-21.843c4.406 0 7.977 3.571 7.977 7.977v74.58c0 4.406-3.572 7.977-7.977 7.977h21.843c4.406 0 7.977-3.572 7.977-7.977v-74.58c0-4.406-3.571-7.977-7.977-7.977z" fill="#6e61b6"/><path d="m131.004 444.548h70.958v52.748c0 5.613-6.144 9.063-10.937 6.141l-24.542-14.962-24.542 14.962c-4.793 2.922-10.937-.528-10.937-6.141z" fill="#e759aa"/><path d="m180.119 444.548v43.106c0 3.05-1.819 5.45-4.244 6.548l15.151 9.236c4.793 2.922 10.937-.528 10.937-6.141v-52.749z" fill="#e03d9c"/><path d="m305.475 185.477 6.367 19.176c1.984 5.975-1.692 12.343-7.859 13.612l-19.79 4.074c-2.22.457-4.233 1.619-5.739 3.313l-13.423 15.102c-4.183 4.706-11.535 4.706-15.718 0l-13.423-15.102c-1.506-1.694-3.519-2.856-5.739-3.313l-19.79-4.074c-6.167-1.269-9.843-7.637-7.859-13.612l6.367-19.176c.714-2.151.714-4.476 0-6.627l-6.367-19.176c-1.984-5.975 1.692-12.343 7.859-13.612l19.79-4.074c2.22-.457 4.233-1.619 5.739-3.313l13.423-15.102c4.183-4.706 11.535-4.706 15.718 0l13.423 15.102c1.506 1.694 3.519 2.856 5.739 3.313l19.79 4.074c6.167 1.269 9.843 7.637 7.859 13.612l-6.367 19.176c-.715 2.152-.715 4.476 0 6.627z" fill="#ffd15b"/><path d="m305.475 185.478c-.714-2.151-.714-4.476 0-6.627l6.367-19.176c1.984-5.975-1.692-12.343-7.859-13.612l-19.79-4.074c-2.22-.457-4.233-1.619-5.739-3.313l-13.423-15.102c-4.182-4.706-11.535-4.706-15.718 0l-4.492 5.054c2.178.421 4.248 1.527 5.851 3.331l5.939 6.717c1.506 1.694 3.519 2.856 5.739 3.313l19.79 4.074c6.167 1.269 9.843 7.637 7.859 13.612l-6.367 19.176c-.714 2.151-.714 4.476 0 6.627l6.367 19.176c1.984 5.975-1.692 12.343-7.859 13.612l-19.79 4.074c-2.22.457-4.233 1.619-5.739 3.313l-5.939 6.647c-1.617 1.819-3.708 2.926-5.905 3.339l4.547 5.115c4.183 4.706 11.535 4.706 15.718 0l13.423-15.102c1.506-1.694 3.519-2.856 5.739-3.313l19.79-4.074c6.167-1.269 9.843-7.637 7.859-13.612z" fill="#ffc344"/><circle cx="401.889" cy="226.024" fill="#2ed1e2" r="15.129"/></g><g><path d="m440.03 173.257h-61.574c-16.644 0-30.185 13.541-30.185 30.184v45.166c0 16.644 13.541 30.184 30.185 30.184h35.688v144.219c0 7.742-6.299 14.04-14.04 14.04l-261.6-.002v-422.048h261.6c7.741 0 14.04 6.298 14.04 14.04v116.582c0 4.142 3.357 7.5 7.5 7.5s7.5-3.358 7.5-7.5v-116.582c0-16.013-13.027-29.04-29.04-29.04h-314.581-.005c-16.013 0-29.04 13.027-29.04 29.04l.005 424.97c0 16.013 13.027 29.04 29.04 29.04h37.98v14.246c0 5.305 2.873 10.213 7.499 12.811 2.233 1.254 4.714 1.879 7.193 1.879 2.654 0 5.307-.717 7.649-2.145l20.638-12.582 20.638 12.582c4.53 2.762 10.216 2.863 14.842.266s7.499-7.506 7.499-12.811v-45.246h190.642c5.09 0 9.876-1.32 14.04-3.631v5.591c0 7.742-6.299 14.04-14.04 14.04h-162.953c-4.143 0-7.5 3.358-7.5 7.5s3.357 7.5 7.5 7.5h162.953c16.013 0 29.04-13.027 29.04-29.04v-175.219h10.887c8.534 0 15.478-6.943 15.478-15.477v-74.58c0-8.534-6.943-15.477-15.478-15.477zm-316.526-158.257v422.048h-37.985c-5.821.489-14.304-6.092-14.035-14.038v-27.009h14.705c4.143 0 7.5-3.358 7.5-7.5s-3.357-7.5-7.5-7.5h-14.706v-300.489h14.705c4.143 0 7.5-3.358 7.5-7.5s-3.357-7.5-7.5-7.5h-14.705v-36.472c0-7.742 6.299-14.04 14.04-14.04zm-37.981 453.05c-7.742 0-14.04-6.298-14.04-14.04v-5.59c3.008 1.75 8.453 3.58 14.04 3.63h37.98v16zm108.939 28.699-24.074-14.676c-2.398-1.462-5.41-1.462-7.809 0l-24.075 14.677v-44.7h55.958zm246.046-233.435c0 .263-.214.477-.478.477h-61.574c-8.373 0-15.185-6.812-15.185-15.184v-45.166c0-8.373 6.812-15.184 15.185-15.184h61.574c.264 0 .478.214.478.477z"/><path d="m195.384 202.291c-1.62 4.879-1.074 10.231 1.496 14.684 2.571 4.452 6.934 7.6 11.97 8.637l19.791 4.074c.632.13 1.216.467 1.645.949l13.423 15.102c3.415 3.843 8.323 6.047 13.464 6.047 5.142 0 10.05-2.204 13.465-6.047l13.423-15.102c.429-.482 1.013-.82 1.646-.95l19.791-4.074c5.035-1.037 9.398-4.185 11.969-8.638s3.115-9.805 1.495-14.683l-6.367-19.176c-.203-.613-.203-1.289 0-1.9l6.367-19.175c1.62-4.879 1.075-10.231-1.495-14.684s-6.934-7.601-11.97-8.638l-19.791-4.074c-.632-.13-1.216-.467-1.645-.949l-13.423-15.102c-3.415-3.843-8.323-6.047-13.465-6.047-5.141 0-10.049 2.204-13.464 6.047l-13.423 15.102c-.429.482-1.013.82-1.646.95l-19.791 4.074c-5.035 1.037-9.397 4.185-11.969 8.637-2.57 4.452-3.116 9.804-1.496 14.684l6.368 19.177c.203.612.203 1.286-.001 1.899zm20.603-25.804-6.367-19.175c-.371-1.118-.003-2.02.25-2.458s.85-1.208 2.003-1.445l19.789-4.074c3.778-.777 7.271-2.793 9.834-5.677l13.423-15.102c.783-.88 1.748-1.012 2.253-1.012.506 0 1.471.132 2.254 1.012l13.423 15.103c2.563 2.884 6.057 4.9 9.833 5.676l19.789 4.073c1.154.238 1.75 1.008 2.003 1.446s.621 1.339.25 2.457l-6.367 19.177c-1.215 3.66-1.215 7.691 0 11.351v.001l6.367 19.176c.371 1.118.003 2.019-.25 2.457s-.849 1.208-2.002 1.445l-19.789 4.074c-3.777.776-7.271 2.792-9.834 5.677l-13.423 15.102c-.783.88-1.748 1.012-2.254 1.012-.505 0-1.47-.132-2.253-1.012l-13.423-15.103c-2.563-2.883-6.056-4.899-9.833-5.676l-19.789-4.074c-1.154-.237-1.751-1.007-2.004-1.445s-.621-1.339-.25-2.457l6.366-19.174c1.217-3.661 1.217-7.695.001-11.355z"/><path d="m201.962 361.026h54.031c4.143 0 7.5-3.358 7.5-7.5s-3.357-7.5-7.5-7.5h-54.031c-4.143 0-7.5 3.358-7.5 7.5s3.357 7.5 7.5 7.5z"/><path d="m201.962 396.001h114.341c4.143 0 7.5-3.358 7.5-7.5s-3.357-7.5-7.5-7.5h-114.341c-4.143 0-7.5 3.358-7.5 7.5s3.357 7.5 7.5 7.5z"/><path d="m401.89 203.395c-12.478 0-22.629 10.151-22.629 22.629s10.151 22.629 22.629 22.629 22.629-10.151 22.629-22.629-10.152-22.629-22.629-22.629zm0 30.258c-4.207 0-7.629-3.422-7.629-7.629s3.422-7.629 7.629-7.629 7.629 3.422 7.629 7.629c0 4.206-3.422 7.629-7.629 7.629z"/><path d="m251.538 196.353c1.919 0 3.839-.732 5.304-2.197l11.378-11.378c2.929-2.929 2.929-7.678 0-10.606-2.93-2.929-7.678-2.929-10.607 0l-11.378 11.378c-2.929 2.929-2.929 7.678 0 10.606 1.464 1.465 3.384 2.197 5.303 2.197z"/></g></g> </symbol></svg>